<?xml version="1.0" encoding="UTF-8"?>
<!DOCTYPE svg PUBLIC "-//W3C//DTD SVG 1.1//EN" "http://www.w3.org/Graphics/SVG/1.1/DTD/svg11.dtd">
<svg xmlns="http://www.w3.org/2000/svg" version="1.1" width="512px" height="512px" style="shape-rendering:geometricPrecision; text-rendering:geometricPrecision; image-rendering:optimizeQuality; fill-rule:evenodd; clip-rule:evenodd" xmlns:xlink="http://www.w3.org/1999/xlink">
<g><path style="opacity:0.997" fill="#ff9b2d" d="M 436.5,179.5 C 324.5,179.333 212.5,179.5 100.5,180C 87.0326,182.644 78.1992,190.478 74,203.5C 54.9406,274.749 35.4406,345.749 15.5,416.5C 15.3333,302.5 15.5,188.5 16,74.5C 19.8333,61.3333 28.3333,52.8333 41.5,49C 79.5,48.3333 117.5,48.3333 155.5,49C 163.024,50.2859 170.024,52.9525 176.5,57C 197.167,72.3333 217.833,87.6667 238.5,103C 247.386,108.518 257.053,111.851 267.5,113C 315.879,113.019 364.212,113.686 412.5,115C 425.801,119.969 433.634,129.469 436,143.5C 436.5,155.495 436.667,167.495 436.5,179.5 Z"/></g>
<g><path style="opacity:0.998" fill="#fecc1a" d="M 436.5,179.5 C 447.505,179.333 458.505,179.5 469.5,180C 486.137,184.433 494.803,195.267 495.5,212.5C 495.294,219.325 494.128,225.992 492,232.5C 474,298.5 456,364.5 438,430.5C 433.972,446.427 423.805,455.26 407.5,457C 287.167,457.667 166.833,457.667 46.5,457C 23.7869,453.104 13.4535,439.604 15.5,416.5C 35.4406,345.749 54.9406,274.749 74,203.5C 78.1992,190.478 87.0326,182.644 100.5,180C 212.5,179.5 324.5,179.333 436.5,179.5 Z"/></g>
</svg>
