<svg xmlns="http://www.w3.org/2000/svg" width="24" height="24" viewBox="0 0 24 24">
  <g id="vuesax_linear_archive-tick" data-name="vuesax/linear/archive-tick" transform="translate(-108 -189)">
    <g id="archive-tick">
      <path id="Vector" d="M13.5,0H3.86A3.869,3.869,0,0,0,0,3.86V17.95c0,1.8,1.29,2.56,2.87,1.69l4.88-2.71a2.118,2.118,0,0,1,1.87,0l4.88,2.71c1.58.88,2.87.12,2.87-1.69V3.86A3.884,3.884,0,0,0,13.5,0Z" transform="translate(111.32 191)" fill="none" stroke="#ffffff" stroke-linecap="round" stroke-linejoin="round" stroke-width="1.5"/>
      <path id="Vector-2" data-name="Vector" d="M0,2.5,1.5,4l4-4" transform="translate(117.59 197.5)" fill="none" stroke="#ffffff" stroke-linecap="round" stroke-linejoin="round" stroke-width="1.5"/>
      <path id="Vector-3" data-name="Vector" d="M0,0H24V24H0Z" transform="translate(108 189)" fill="none" opacity="0"/>
    </g>
  </g>
</svg>
