<svg xmlns="http://www.w3.org/2000/svg" width="48" height="48" viewBox="0 0 48 48">
  <g id="vuesax_bold_dollar-square" data-name="vuesax/bold/dollar-square" transform="translate(-172 -572)">
    <g id="dollar-square" transform="translate(172 572)">
      <path id="Vector" d="M3.66,0V5.72l-2.02-.7C.62,4.66,0,4.32,0,2.58A2.483,2.483,0,0,1,2.36,0Z" transform="translate(18.84 16.16)" fill="#ff7948"/>
      <path id="Vector-2" data-name="Vector" d="M3.66,3.14A2.483,2.483,0,0,1,1.3,5.72H0V0L2.02.7C3.04,1.06,3.66,1.4,3.66,3.14Z" transform="translate(25.5 26.12)" fill="#ff7948"/>
      <path id="Vector-3" data-name="Vector" d="M28.38,0H11.62C4.34,0,0,4.34,0,11.62V28.38C0,35.66,4.34,40,11.62,40H28.38C35.66,40,40,35.66,40,28.38V11.62C40,4.34,35.66,0,28.38,0ZM24.52,20c1.56.54,3.64,1.68,3.64,5.26a5.475,5.475,0,0,1-5.36,5.58H21.5V32a1.5,1.5,0,0,1-3,0V30.84h-.72a6.072,6.072,0,0,1-5.94-6.18,1.5,1.5,0,0,1,3,0,3.067,3.067,0,0,0,2.94,3.18h.72V21.06L15.48,20c-1.56-.54-3.64-1.68-3.64-5.26A5.475,5.475,0,0,1,17.2,9.16h1.3V8a1.5,1.5,0,0,1,3,0V9.16h.72a6.072,6.072,0,0,1,5.94,6.18,1.5,1.5,0,0,1-3,0,3.067,3.067,0,0,0-2.94-3.18H21.5v6.78Z" transform="translate(4 4)" fill="#ff7948"/>
      <path id="Vector-4" data-name="Vector" d="M0,0H48V48H0Z" fill="none" opacity="0"/>
    </g>
  </g>
</svg>
