<svg xmlns="http://www.w3.org/2000/svg" width="66.697" height="81.732" viewBox="0 0 66.697 81.732">
<g id="Group_1353" data-name="Group 1353" transform="translate(-325.493 -269.805)">
<path id="Path_590" data-name="Path 590" d="M385.961,300.586H348.618a5.491,5.491,0,0,0-5.458,4.891l-.235,2.139a5.49,5.49,0,0,0,2.713,5.355l17.138,9.895a6,6,0,0,1,0,10.4l-21.8,12.586A5.49,5.49,0,0,0,338.264,350h0a5.485,5.485,0,0,0,.294,2.464l1.982,5.491a5.491,5.491,0,0,0,5.165,3.626h43.17a5.491,5.491,0,0,0,5.165-3.626l1.982-5.491a5.485,5.485,0,0,0,.294-2.464l-4.9-44.526A5.492,5.492,0,0,0,385.961,300.586Z" transform="translate(-4.157 -10.046)" fill="#d2d2d2"/>
<g id="Group_1352" data-name="Group 1352" transform="translate(348.911 269.805)">
<path id="Path_591" data-name="Path 591" d="M386.248,286.555A2.451,2.451,0,0,1,383.8,284.1v-.077a9.319,9.319,0,1,0-18.637,0v.077a2.451,2.451,0,0,1-4.9,0v-.077a14.221,14.221,0,1,1,28.442,0v.077A2.451,2.451,0,0,1,386.248,286.555Z" transform="translate(-360.257 -269.805)" fill="#d2d2d2"/>
</g>
<path id="Path_592" data-name="Path 592" d="M360.224,334.26l-16.156-9.328a1.267,1.267,0,0,0-1.833,1.508l3.113,9.1a1.277,1.277,0,0,1,0,.82l-3.113,9.1a1.268,1.268,0,0,0,1.833,1.508l16.156-9.328A1.955,1.955,0,0,0,360.224,334.26Z" transform="translate(-5.441 -17.935)" fill="#d2d2d2"/>
<path id="Path_593" data-name="Path 593" d="M331.988,333.093h-3.031a1.8,1.8,0,0,1-1.8-1.8h0a1.8,1.8,0,0,1,1.8-1.8h3.031a1.8,1.8,0,0,1,1.8,1.8h0A1.8,1.8,0,0,1,331.988,333.093Z" transform="translate(-0.544 -19.483)" fill="#d2d2d2"/>
<path id="Path_594" data-name="Path 594" d="M335.238,342.3h-3.031a1.8,1.8,0,0,1-1.8-1.8h0a1.8,1.8,0,0,1,1.8-1.8h3.031a1.8,1.8,0,0,1,1.8,1.8h0A1.8,1.8,0,0,1,335.238,342.3Z" transform="translate(-1.605 -22.489)" fill="#d2d2d2"/>
<path id="Path_595" data-name="Path 595" d="M330.321,351.513H327.29a1.8,1.8,0,0,1-1.8-1.8h0a1.8,1.8,0,0,1,1.8-1.8h3.031a1.8,1.8,0,0,1,1.8,1.8h0A1.8,1.8,0,0,1,330.321,351.513Z" transform="translate(0 -25.496)" fill="#d2d2d2"/>
</g>
</svg>