<?xml version="1.0" encoding="utf-8"?>
<svg xmlns="http://www.w3.org/2000/svg" viewBox="0 0 500 500">
    <g transform="matrix(20.833332061767578, 0, 0, 20.833332061767578, 0.000003850348548439797, 0)"><g id="star" transform="translate(-108 -188)">
    <path id="Vector" d="M11.729,1.433l1.76,3.52A2.173,2.173,0,0,0,14.909,6l3.19.53c2.04.34,2.52,1.82,1.05,3.28l-2.48,2.48a2.171,2.171,0,0,0-.52,1.81l.71,3.07c.56,2.43-.73,3.37-2.88,2.1l-2.99-1.77a2.162,2.162,0,0,0-1.98,0l-2.99,1.77c-2.14,1.27-3.44.32-2.88-2.1l.71-3.07a2.171,2.171,0,0,0-.52-1.81L.849,9.813c-1.46-1.46-.99-2.94,1.05-3.28L5.089,6A2.178,2.178,0,0,0,6.5,4.953l1.76-3.52C9.219-.477,10.779-.477,11.729,1.433Z" transform="translate(110.001 190.077)" fill="none" stroke="#292d32" stroke-linecap="round" stroke-linejoin="round" stroke-width="1.5" style="fill: #292d32;"/>
    <path id="Vector-2" data-name="Vector" d="M0,0H24V24H0Z" transform="translate(108 188)" fill="none" opacity="0" style="fill: #292d32;"/>
  </g></g></svg>