<svg id="Layer_1" data-name="Layer 1" xmlns="http://www.w3.org/2000/svg" viewBox="0 0 217.31 64.37"><defs><style>.cls-1{fill:#fff;}</style></defs><path class="cls-1" d="M60.35,4c-4-4-8.05-4-16.09-4H20.12C12.07,0,8.05,0,4,4S0,12.07,0,20.11V44.26c0,8,0,12.07,4,16.09s8.05,4,16.1,4H44.26c8,0,12.07,0,16.09-4s4-8.05,4-16.09V20.11C64.37,12.07,64.37,8.05,60.35,4ZM23.68,54.22a3.48,3.48,0,1,1,3.47-3.47A3.47,3.47,0,0,1,23.68,54.22Zm17.36,0a3.48,3.48,0,1,1,3.47-3.47A3.47,3.47,0,0,1,41,54.22ZM55.5,21.34a4.11,4.11,0,0,1-2.72.8H51.19L45.66,38.35c-.48,1.38-.85,2.37-1.12,3A4.41,4.41,0,0,1,43.29,43a4.22,4.22,0,0,1-4.79,0A4.72,4.72,0,0,1,37.2,41c-.28-.75-.59-1.72-.92-2.92L32.39,24.88,28.63,38.12A16.37,16.37,0,0,1,27,42.3,3.32,3.32,0,0,1,24,43.7,3.91,3.91,0,0,1,22,43.27,3.69,3.69,0,0,1,20.74,42a9,9,0,0,1-.92-1.92c-.27-.73-.48-1.32-.63-1.75l-5.5-16.29a11.44,11.44,0,0,1-.82-3.16,2.72,2.72,0,0,1,.87-2,2.9,2.9,0,0,1,2.14-.87,2.47,2.47,0,0,1,2.29,1,13.8,13.8,0,0,1,1.27,3.27l4.43,15.19,4-14.11q.64-2.22,1-3A3.88,3.88,0,0,1,30,16.8a3.48,3.48,0,0,1,2.35-.74,3.55,3.55,0,0,1,2.38.74A4.22,4.22,0,0,1,36,18.39c.23.57.55,1.56,1,3l4,14.11,4.49-15.19c.29-1.09.54-1.88.72-2.37a3.14,3.14,0,0,1,.92-1.3A2.78,2.78,0,0,1,49,16.06H52.5a4.72,4.72,0,0,1,3,.79,2.65,2.65,0,0,1,1,2.21A2.79,2.79,0,0,1,55.5,21.34Z"/><path class="cls-1" d="M80.34,54.15A.44.44,0,0,0,80,54h-.13v-5.7a.5.5,0,0,0-.5-.48.46.46,0,0,0-.22.06.47.47,0,0,0-.18.16l-3.53,6.17a.56.56,0,0,0-.08.27.46.46,0,0,0,.15.33.46.46,0,0,0,.34.15H78.9v.79a.48.48,0,0,0,.49.49.48.48,0,0,0,.34-.14.48.48,0,0,0,.14-.35V55H80a.48.48,0,0,0,.48-.48A.42.42,0,0,0,80.34,54.15ZM78.9,54H76.69l2.21-3.86Z"/><path class="cls-1" d="M93.78,51.27a2.16,2.16,0,0,0-.5-.73,2.36,2.36,0,0,0-.74-.5,2.43,2.43,0,0,0-.89-.17,2.17,2.17,0,0,0-.72.11,2.6,2.6,0,0,0-.62.32V48.16a.47.47,0,0,0-.15-.35.48.48,0,0,0-.68,0,.46.46,0,0,0-.14.35V54a2.2,2.2,0,0,0,.18.88,2.08,2.08,0,0,0,.49.74,2.45,2.45,0,0,0,.74.49,2.32,2.32,0,0,0,1.79,0,2.33,2.33,0,0,0,.74-.49,2.39,2.39,0,0,0,.49-.74A2.05,2.05,0,0,0,94,54V52.17A2.26,2.26,0,0,0,93.78,51.27ZM93,54a1.34,1.34,0,0,1-.11.51,1.5,1.5,0,0,1-.29.42,1.22,1.22,0,0,1-.42.29,1.34,1.34,0,0,1-.52.1,1.27,1.27,0,0,1-.52-.1,1.17,1.17,0,0,1-.43-.29,1.26,1.26,0,0,1-.39-.93v-1.9a1.31,1.31,0,0,1,.12-.49,1.33,1.33,0,0,1,.29-.41,1.51,1.51,0,0,1,.42-.27,1.25,1.25,0,0,1,.51-.1,1.31,1.31,0,0,1,.95.39,1.3,1.3,0,0,1,.29.43,1.25,1.25,0,0,1,.1.51Z"/><path class="cls-1" d="M100.16,51.26V54a2.2,2.2,0,0,1-.18.88,2.41,2.41,0,0,1-.5.74,2.33,2.33,0,0,1-.74.49,2.25,2.25,0,0,1-.89.18,2.19,2.19,0,0,1-.9-.18,2.33,2.33,0,0,1-.74-.49,2.22,2.22,0,0,1-.49-.74,2.2,2.2,0,0,1-.18-.88V50.4a.48.48,0,0,1,.14-.34.44.44,0,0,1,.34-.14.45.45,0,0,1,.34.14.45.45,0,0,1,.15.34V54a1.26,1.26,0,0,0,.39.93,1.22,1.22,0,0,0,.42.29,1.35,1.35,0,0,0,.53.1,1.29,1.29,0,0,0,.51-.1,1.17,1.17,0,0,0,.43-.29,1.75,1.75,0,0,0,.29-.42,1.34,1.34,0,0,0,.11-.51V50.4a.48.48,0,0,1,.14-.34.48.48,0,0,1,.68,0,.45.45,0,0,1,.15.34v0l.16-.63a.48.48,0,0,1,.23-.29.42.42,0,0,1,.36-.05.45.45,0,0,1,.3.22.44.44,0,0,1,.05.37l-.26,1a.5.5,0,0,1-.23.3.45.45,0,0,1-.36.05.51.51,0,0,1-.25-.16Z"/><path class="cls-1" d="M105.15,47.41a.48.48,0,0,0-.35-.14.43.43,0,0,0-.41.23l-.53.91a.56.56,0,0,0-.07.25.48.48,0,0,0,.5.48.44.44,0,0,0,.4-.23l.53-.91a.44.44,0,0,0,.06-.25A.48.48,0,0,0,105.15,47.41Zm2.15,2.28a.45.45,0,0,0-.3-.22.42.42,0,0,0-.36.05.48.48,0,0,0-.23.29l-.26,1a0,0,0,0,1,0,0,2,2,0,0,0-.25-.32,2.39,2.39,0,0,0-.74-.49,2.44,2.44,0,0,0-1.79,0,2.31,2.31,0,0,0-.73.5,2,2,0,0,0-.5.73,2.26,2.26,0,0,0-.18.9V54a2.2,2.2,0,0,0,.18.88,2.41,2.41,0,0,0,.5.74,2.33,2.33,0,0,0,.74.49,2.29,2.29,0,0,0,1.78,0,2.38,2.38,0,0,0,.75-.49,2.22,2.22,0,0,0,.49-.74,2.2,2.2,0,0,0,.18-.88V52.17a2.29,2.29,0,0,0-.14-.78l.07,0a.45.45,0,0,0,.36-.05.5.5,0,0,0,.23-.3l.27-1A.48.48,0,0,0,107.3,49.69ZM105.6,54a1.32,1.32,0,0,1-.1.51,1.5,1.5,0,0,1-.29.42,1.17,1.17,0,0,1-.43.29,1.27,1.27,0,0,1-.52.1,1.34,1.34,0,0,1-.52-.1,1.26,1.26,0,0,1-.43-.29,1.47,1.47,0,0,1-.28-.42,1.34,1.34,0,0,1-.11-.51V52.17a1.25,1.25,0,0,1,.1-.51,1.17,1.17,0,0,1,.29-.43,1.26,1.26,0,0,1,.43-.29,1.3,1.3,0,0,1,.52-.1,1.34,1.34,0,0,1,.52.1,1.17,1.17,0,0,1,.43.29,1.28,1.28,0,0,1,.28.43,1.12,1.12,0,0,1,.11.51Z"/><path class="cls-1" d="M108.31,52.17a2.27,2.27,0,0,1,.18-.91,2.19,2.19,0,0,1,.51-.73,2.42,2.42,0,0,1,.76-.49,2.49,2.49,0,0,1,.91-.17l.35,0a2.18,2.18,0,0,1,.58.17,2.06,2.06,0,0,1,.64.43,2.12,2.12,0,0,1,.51.79.54.54,0,0,1,0,.19.48.48,0,0,1-.14.34.45.45,0,0,1-.35.14.5.5,0,0,1-.27-.08.55.55,0,0,1-.18-.22,1.3,1.3,0,0,0-1.23-.82,1.27,1.27,0,0,0-.52.1,1.36,1.36,0,0,0-.72.72,1.25,1.25,0,0,0-.1.51V54a1.34,1.34,0,0,0,.11.51,1.47,1.47,0,0,0,.28.42,1.26,1.26,0,0,0,.43.29,1.34,1.34,0,0,0,.52.1,1.36,1.36,0,0,0,.74-.21,1.29,1.29,0,0,0,.49-.61.67.67,0,0,1,.19-.22.38.38,0,0,1,.26-.08.45.45,0,0,1,.35.14.49.49,0,0,1,.14.34.39.39,0,0,1,0,.18,2.32,2.32,0,0,1-.61.86,2.76,2.76,0,0,1-.7.42,2.13,2.13,0,0,1-.57.14h-.25a2.3,2.3,0,0,1-.9-.18,2.4,2.4,0,0,1-.73-.49,2.25,2.25,0,0,1-.5-.74,2.2,2.2,0,0,1-.18-.88Z"/><path class="cls-1" d="M121.56,52.17a2.27,2.27,0,0,1,.18-.91,2.19,2.19,0,0,1,.51-.73A2.42,2.42,0,0,1,123,50a2.49,2.49,0,0,1,.91-.17l.35,0a2.18,2.18,0,0,1,.58.17,1.91,1.91,0,0,1,.63.43,2,2,0,0,1,.52.79.54.54,0,0,1,0,.19.48.48,0,0,1-.14.34.45.45,0,0,1-.35.14.5.5,0,0,1-.27-.08.46.46,0,0,1-.17-.22,1.46,1.46,0,0,0-.51-.61,1.37,1.37,0,0,0-.73-.21,1.27,1.27,0,0,0-.52.1,1.36,1.36,0,0,0-.72.72,1.25,1.25,0,0,0-.1.51V54a1.54,1.54,0,0,0,.1.51,1.75,1.75,0,0,0,.29.42,1.26,1.26,0,0,0,.43.29,1.34,1.34,0,0,0,.52.1,1.3,1.3,0,0,0,1.24-.82.55.55,0,0,1,.18-.22.38.38,0,0,1,.26-.08.45.45,0,0,1,.35.14.49.49,0,0,1,.14.34.39.39,0,0,1,0,.18,2.32,2.32,0,0,1-.61.86,2.76,2.76,0,0,1-.7.42,2.13,2.13,0,0,1-.57.14h-.25a2.21,2.21,0,0,1-.89-.18,2.33,2.33,0,0,1-.74-.49,2.25,2.25,0,0,1-.5-.74,2.2,2.2,0,0,1-.18-.88Z"/><path class="cls-1" d="M127.8,48.16a.46.46,0,0,1,.14-.35.48.48,0,0,1,.34-.14.52.52,0,0,1,.35.14.5.5,0,0,1,.14.35V50.3a2.6,2.6,0,0,1,.62-.32,2.17,2.17,0,0,1,.72-.11A2.43,2.43,0,0,1,131,50a2.25,2.25,0,0,1,.74.5,2.29,2.29,0,0,1,.49.73,2.11,2.11,0,0,1,.19.9v3.59a.45.45,0,0,1-.15.35.49.49,0,0,1-.33.14.48.48,0,0,1-.49-.49V52.17a1.12,1.12,0,0,0-.11-.51,1.45,1.45,0,0,0-.28-.43,1.26,1.26,0,0,0-.43-.29,1.34,1.34,0,0,0-.52-.1,1.27,1.27,0,0,0-.52.1,1.68,1.68,0,0,0-.42.27,1.18,1.18,0,0,0-.29.41,1.53,1.53,0,0,0-.11.49v3.65a.48.48,0,0,1-.14.35.52.52,0,0,1-.35.14.48.48,0,0,1-.34-.14.45.45,0,0,1-.14-.35v-7.6Z"/><path class="cls-1" d="M138.42,51.27a2.29,2.29,0,0,0-.49-.73,2.25,2.25,0,0,0-.74-.5,2.44,2.44,0,0,0-1.79,0,2.31,2.31,0,0,0-.73.5,2.16,2.16,0,0,0-.5.73,2.26,2.26,0,0,0-.18.9V54a2.2,2.2,0,0,0,.18.88,2.25,2.25,0,0,0,.5.74,2.33,2.33,0,0,0,.74.49,2.29,2.29,0,0,0,1.78,0,2.22,2.22,0,0,0,.74-.49,2.11,2.11,0,0,0,.5-.74,2.2,2.2,0,0,0,.18-.88V52.17A2.11,2.11,0,0,0,138.42,51.27ZM137.64,54a1.26,1.26,0,0,1-.39.93,1.17,1.17,0,0,1-.43.29,1.27,1.27,0,0,1-.52.1,1.34,1.34,0,0,1-.52-.1,1.26,1.26,0,0,1-.43-.29,1.47,1.47,0,0,1-.28-.42A1.17,1.17,0,0,1,135,54V52.17a1.25,1.25,0,0,1,.1-.51,1.36,1.36,0,0,1,.72-.72,1.27,1.27,0,0,1,.52-.1,1.34,1.34,0,0,1,.52.1,1.06,1.06,0,0,1,.42.29,1.3,1.3,0,0,1,.29.43,1.26,1.26,0,0,1,.11.51Z"/><path class="cls-1" d="M148.66,47.92a.42.42,0,0,1,.28-.1.49.49,0,0,1,.33.14.45.45,0,0,1,.15.35v7.45a.48.48,0,0,1-.14.35.48.48,0,0,1-.34.14.49.49,0,0,1-.34-.14.45.45,0,0,1-.15-.35v-6.6l-.55.33a.53.53,0,0,1-.25.07.48.48,0,0,1-.33-.13.44.44,0,0,1-.16-.36.53.53,0,0,1,.06-.24.39.39,0,0,1,.19-.19Z"/><path class="cls-1" d="M158.44,48.29a.48.48,0,0,1,.14-.34.5.5,0,0,1,.35-.14.49.49,0,0,1,.34.14.44.44,0,0,1,.14.34v1.63h2.48a.46.46,0,0,1,.35.14.48.48,0,0,1,0,.68.47.47,0,0,1-.35.15h-2.48V54a1.34,1.34,0,0,0,.11.51,1.5,1.5,0,0,0,.29.42,1.17,1.17,0,0,0,.43.29,1.3,1.3,0,0,0,.52.1,1.32,1.32,0,0,0,.73-.21,1.31,1.31,0,0,0,.5-.61.79.79,0,0,1,.18-.22.4.4,0,0,1,.27-.08.46.46,0,0,1,.35.14.48.48,0,0,1,.13.34.57.57,0,0,1,0,.18,2.33,2.33,0,0,1-.62.86,2.9,2.9,0,0,1-.69.42,2.28,2.28,0,0,1-.58.14h-.24a2.26,2.26,0,0,1-.9-.18,2.45,2.45,0,0,1-.74-.49,2.22,2.22,0,0,1-.49-.74,2.05,2.05,0,0,1-.19-.88Z"/><path class="cls-1" d="M164.44,50.4a.48.48,0,0,1,.14-.34.45.45,0,0,1,.35-.14.42.42,0,0,1,.29.11.48.48,0,0,1,.18.29,2.28,2.28,0,0,1,1.4-.45,3.42,3.42,0,0,1,.71.11,1.53,1.53,0,0,1,.48.23.47.47,0,0,1,.22.41.44.44,0,0,1-.15.35.46.46,0,0,1-.34.14.47.47,0,0,1-.3-.1,1.42,1.42,0,0,0-.67-.17,1.19,1.19,0,0,0-.51.1,1.73,1.73,0,0,0-.43.27,1.33,1.33,0,0,0-.29.41,1.53,1.53,0,0,0-.11.49v3.65a.48.48,0,0,1-.14.35.48.48,0,0,1-.68,0,.45.45,0,0,1-.15-.35V50.4Z"/><path class="cls-1" d="M174.06,51.27a2.46,2.46,0,0,0-.49-.73,2.36,2.36,0,0,0-.74-.5,2.43,2.43,0,0,0-.89-.17,2.37,2.37,0,0,0-.9.17,2.48,2.48,0,0,0-.74.5,2.31,2.31,0,0,0-.5.73,2.44,2.44,0,0,0-.17.9V54a2.2,2.2,0,0,0,.18.88,2.25,2.25,0,0,0,.5.74,2.29,2.29,0,0,0,.73.49,2.26,2.26,0,0,0,.9.18,2.2,2.2,0,0,0,1.35-.43.42.42,0,0,0,.16.27.5.5,0,0,0,.32.11.49.49,0,0,0,.33-.14.45.45,0,0,0,.15-.35V52.17A2.11,2.11,0,0,0,174.06,51.27Zm-.78,2.8a1.41,1.41,0,0,1-.12.5,1.28,1.28,0,0,1-.29.4,1.51,1.51,0,0,1-.42.27,1.44,1.44,0,0,1-.51.09,1.34,1.34,0,0,1-.52-.1,1.17,1.17,0,0,1-.43-.29,1.75,1.75,0,0,1-.29-.42,1.32,1.32,0,0,1-.1-.51V52.17a1.25,1.25,0,0,1,.1-.51,1.15,1.15,0,0,1,.28-.43,1.31,1.31,0,0,1,1-.39,1.34,1.34,0,0,1,.52.1,1.22,1.22,0,0,1,.42.29,1.3,1.3,0,0,1,.29.43,1.26,1.26,0,0,1,.11.51Z"/><path class="cls-1" d="M176.08,52.17a2.26,2.26,0,0,1,.18-.9,2.31,2.31,0,0,1,.5-.73,2.23,2.23,0,0,1,1.64-.67,2.43,2.43,0,0,1,.89.17,2.21,2.21,0,0,1,.73.5,2.31,2.31,0,0,1,.5.73,2.26,2.26,0,0,1,.18.9v3.59a.45.45,0,0,1-.14.35.49.49,0,0,1-.33.14.48.48,0,0,1-.35-.14.45.45,0,0,1-.14-.35V52.17a1.26,1.26,0,0,0-.11-.51,1.3,1.3,0,0,0-.29-.43,1.22,1.22,0,0,0-.42-.29,1.34,1.34,0,0,0-.52-.1,1.31,1.31,0,0,0-1,.39,1.15,1.15,0,0,0-.28.43,1.25,1.25,0,0,0-.1.51v3.59a.45.45,0,0,1-.15.35.49.49,0,0,1-.34.14.5.5,0,0,1-.35-.14.48.48,0,0,1-.14-.35Z"/><path class="cls-1" d="M186.8,51.27a2.31,2.31,0,0,0-.5-.73,2.21,2.21,0,0,0-.73-.5,2.47,2.47,0,0,0-1.8,0,2.43,2.43,0,0,0-.73.5,2.16,2.16,0,0,0-.5.73,2.26,2.26,0,0,0-.18.9V54a2.05,2.05,0,0,0,.19.88,2.39,2.39,0,0,0,.49.74,2.33,2.33,0,0,0,.74.49,2.33,2.33,0,0,0,2.23-.24v.32a1.25,1.25,0,0,1-.1.51,1.48,1.48,0,0,1-.29.43,1.3,1.3,0,0,1-.43.29,1.29,1.29,0,0,1-.51.1.48.48,0,0,0-.35.14.45.45,0,0,0-.14.35.45.45,0,0,0,.14.34.48.48,0,0,0,.35.14,2.28,2.28,0,0,0,.89-.18,2.18,2.18,0,0,0,.73-.49,2.31,2.31,0,0,0,.5-.73,2.26,2.26,0,0,0,.18-.9v-4A2.26,2.26,0,0,0,186.8,51.27Zm-.79,2.8a1.08,1.08,0,0,1-.12.5,1.26,1.26,0,0,1-.28.4,1.29,1.29,0,0,1-.93.36,1.3,1.3,0,0,1-.52-.1,1.17,1.17,0,0,1-.43-.29,1.5,1.5,0,0,1-.29-.42,1.32,1.32,0,0,1-.1-.51V52.17a1.25,1.25,0,0,1,.1-.51,1.15,1.15,0,0,1,.28-.43,1.36,1.36,0,0,1,.43-.29,1.32,1.32,0,0,1,.53-.1,1.29,1.29,0,0,1,.51.1,1.17,1.17,0,0,1,.43.29,1.48,1.48,0,0,1,.29.43,1.25,1.25,0,0,1,.1.51Z"/><path class="cls-1" d="M196,50.4a.45.45,0,0,1,.15-.34.45.45,0,0,1,.34-.14.46.46,0,0,1,.35.14.48.48,0,0,1,.14.34V54a1.42,1.42,0,0,0,.33.94A1.22,1.22,0,0,0,199,55a1.41,1.41,0,0,0,.32-.94V50.4a.45.45,0,0,1,.15-.34.45.45,0,0,1,.34-.14.44.44,0,0,1,.34.14.48.48,0,0,1,.14.34V54a1.42,1.42,0,0,0,.33.94,1.14,1.14,0,0,0,.88.38,1.11,1.11,0,0,0,.9-.38,1.47,1.47,0,0,0,.32-.94V50.4a.5.5,0,0,1,.48-.48.46.46,0,0,1,.35.14.48.48,0,0,1,.14.34V54a2.59,2.59,0,0,1-.16.88,2.29,2.29,0,0,1-.45.74,2.16,2.16,0,0,1-.7.49,2.13,2.13,0,0,1-.88.18,2,2,0,0,1-1-.23,2.24,2.24,0,0,1-.73-.6,2.35,2.35,0,0,1-.73.6,2.07,2.07,0,0,1-1,.23,2.13,2.13,0,0,1-.88-.18,2,2,0,0,1-.69-.49,2.29,2.29,0,0,1-.45-.74A2.38,2.38,0,0,1,196,54Z"/><path class="cls-1" d="M210,51.27a2.49,2.49,0,0,0-.5-.73,2.31,2.31,0,0,0-.73-.5,2.48,2.48,0,0,0-.9-.17,2.19,2.19,0,0,0-1.63.67,2.16,2.16,0,0,0-.5.73,2.26,2.26,0,0,0-.18.9V54a2.05,2.05,0,0,0,.19.88,2.22,2.22,0,0,0,.49.74,2.45,2.45,0,0,0,.74.49,2.32,2.32,0,0,0,2.17-.2,2.3,2.3,0,0,0,.83-1l0-.05a.57.57,0,0,0,0-.18.45.45,0,0,0-.14-.34.42.42,0,0,0-.34-.14.44.44,0,0,0-.28.08.52.52,0,0,0-.17.22v0a1.3,1.3,0,0,1-.49.57,1.36,1.36,0,0,1-.74.21,1.25,1.25,0,0,1-.51-.1,1.17,1.17,0,0,1-.43-.29,1.5,1.5,0,0,1-.29-.42,1.34,1.34,0,0,1-.11-.51v-.44h3.17a.48.48,0,0,0,.34-.14.48.48,0,0,0,.14-.35v-.91A2.26,2.26,0,0,0,210,51.27Zm-.79,1.33H206.5v-.43a1.45,1.45,0,0,1,.1-.51,1.3,1.3,0,0,1,.29-.43,1.26,1.26,0,0,1,.43-.29,1.4,1.4,0,0,1,1,0,1.17,1.17,0,0,1,.43.29,1.28,1.28,0,0,1,.28.43,1.12,1.12,0,0,1,.11.51Z"/><path class="cls-1" d="M216.36,51.27a2.29,2.29,0,0,0-.49-.73,2.36,2.36,0,0,0-.74-.5,2.47,2.47,0,0,0-.89-.17,2.13,2.13,0,0,0-.72.11,2.42,2.42,0,0,0-.62.32V48.16a.47.47,0,0,0-.15-.35.49.49,0,0,0-.34-.14.48.48,0,0,0-.49.49V54a2.2,2.2,0,0,0,.18.88,2.11,2.11,0,0,0,.5.74,2.4,2.4,0,0,0,.73.49,2.31,2.31,0,0,0,2.53-.49,2.41,2.41,0,0,0,.5-.74,2.2,2.2,0,0,0,.18-.88V52.17A2.26,2.26,0,0,0,216.36,51.27ZM215.58,54a1.34,1.34,0,0,1-.11.51,1.75,1.75,0,0,1-.29.42,1.17,1.17,0,0,1-.43.29,1.4,1.4,0,0,1-1,0,1.26,1.26,0,0,1-.43-.29,1.5,1.5,0,0,1-.29-.42,1.52,1.52,0,0,1-.09-.51v-1.9a1,1,0,0,1,.12-.49,1.3,1.3,0,0,1,.28-.41,1.51,1.51,0,0,1,.42-.27,1.34,1.34,0,0,1,.52-.1,1.3,1.3,0,0,1,.52.1,1.22,1.22,0,0,1,.42.29,1.17,1.17,0,0,1,.29.43,1.26,1.26,0,0,1,.11.51Z"/><path class="cls-1" d="M105.62,16.32a2.7,2.7,0,0,0-1.84.55,3.12,3.12,0,0,0-.91,1.28q-.27.72-.72,2.34l-4.41,15-4-13.92c-.41-1.39-.73-2.37-1-2.93A4.13,4.13,0,0,0,91.61,17,4.13,4.13,0,0,0,87,17a3.86,3.86,0,0,0-1.15,1.53c-.21.53-.52,1.52-1,3l-4,13.92-4.36-15a13.92,13.92,0,0,0-1.26-3.22A2.45,2.45,0,0,0,73,16.32a2.9,2.9,0,0,0-2.11.86A2.69,2.69,0,0,0,70,19.12a11.44,11.44,0,0,0,.81,3.12l5.43,16.05L76.87,40a9.79,9.79,0,0,0,.91,1.89,3.61,3.61,0,0,0,1.29,1.23,3.87,3.87,0,0,0,1.88.43,3.29,3.29,0,0,0,3-1.39,16,16,0,0,0,1.59-4.11L89.27,25,93.1,38.07c.33,1.18.63,2.13.91,2.87a4.53,4.53,0,0,0,1.29,1.87,4.14,4.14,0,0,0,4.71,0,4.51,4.51,0,0,0,1.24-1.62c.26-.61.63-1.59,1.1-3l5.48-16a10.43,10.43,0,0,0,.76-3.12,2.64,2.64,0,0,0-.89-2,2.93,2.93,0,0,0-2.08-.83Z"/><path class="cls-1" d="M131.49,34.39a2.17,2.17,0,0,0-1.47.44c-.83.79-1.51,1.41-2,1.87A15.23,15.23,0,0,1,126.27,38a7.44,7.44,0,0,1-1.93.89,8,8,0,0,1-2.2.28,6.14,6.14,0,0,1-5.66-3.51,9,9,0,0,1-.92-4h13.11a9.2,9.2,0,0,0,4.08-.74c1-.5,1.44-1.6,1.44-3.28a11.26,11.26,0,0,0-1.39-5.35A11,11,0,0,0,128.59,18a13.14,13.14,0,0,0-6.75-1.65,14.9,14.9,0,0,0-5.49,1,11,11,0,0,0-4.17,2.78,12.19,12.19,0,0,0-2.58,4.36,16.62,16.62,0,0,0-.89,5.51q0,6.31,3.59,10t10,3.68a15.51,15.51,0,0,0,5-.73A12.35,12.35,0,0,0,130.94,41a8.41,8.41,0,0,0,2.15-2.33,4.41,4.41,0,0,0,.71-2.12,2,2,0,0,0-.64-1.6A2.44,2.44,0,0,0,131.49,34.39Zm-14-11.7A5.39,5.39,0,0,1,121.63,21a5.53,5.53,0,0,1,4.23,1.71,8.11,8.11,0,0,1,1.85,5.14H115.56A8.62,8.62,0,0,1,117.51,22.69Z"/><path class="cls-1" d="M216.28,31.54a8.63,8.63,0,0,0-3-2.51,22.19,22.19,0,0,0-5.15-1.84c-1.77-.43-3.16-.79-4.16-1.09A7.41,7.41,0,0,1,201.54,25a2.1,2.1,0,0,1-.89-1.74,2.29,2.29,0,0,1,1.21-1.95,5.55,5.55,0,0,1,3-.78,5.79,5.79,0,0,1,2.83.59,6.22,6.22,0,0,1,1.81,1.59,12.63,12.63,0,0,0,1.67,1.79,2.77,2.77,0,0,0,1.78.59,3.15,3.15,0,0,0,2.22-.74,2.58,2.58,0,0,0,.78-1.91,4,4,0,0,0-.73-2.18,7.13,7.13,0,0,0-2.14-2,11.72,11.72,0,0,0-3.49-1.46,19,19,0,0,0-4.73-.54,13.69,13.69,0,0,0-5.71,1.07,8.37,8.37,0,0,0-3.58,2.89A6.79,6.79,0,0,0,194.4,24a5.77,5.77,0,0,0,1.32,3.85,9.21,9.21,0,0,0,3.51,2.51,35.4,35.4,0,0,0,5.68,1.82,16.59,16.59,0,0,1,4.45,1.57,2.8,2.8,0,0,1,1.36,2.6,2.54,2.54,0,0,1-1.31,2.07,5.72,5.72,0,0,1-3.33.91,6.54,6.54,0,0,1-6.45-3.6,5.38,5.38,0,0,0-1.09-1.46,2.31,2.31,0,0,0-1.63-.52,2.72,2.72,0,0,0-2,.79,2.59,2.59,0,0,0-.79,1.91,5.62,5.62,0,0,0,1.24,3.36,9.12,9.12,0,0,0,3.84,2.79,15.86,15.86,0,0,0,6.24,1.11,18,18,0,0,0,6.49-1,7.83,7.83,0,0,0,5.39-7.82,5.56,5.56,0,0,0-1-3.31Z"/><path class="cls-1" d="M160.89,22.57A10.29,10.29,0,0,0,157,18a10.73,10.73,0,0,0-5.85-1.59,10.22,10.22,0,0,0-4.86,1.05,15.61,15.61,0,0,0-3.86,3V11.87A4.32,4.32,0,0,0,141.59,9a3,3,0,0,0-2.38-1,2.74,2.74,0,0,0-2.3,1,4.88,4.88,0,0,0-.82,3.08V39.76a4.19,4.19,0,0,0,.85,2.86,2.84,2.84,0,0,0,2.27,1,3,3,0,0,0,2.31-1,4.05,4.05,0,0,0,.9-2.86V39.1c.74.85,1.33,1.49,1.78,1.91a10.53,10.53,0,0,0,1.63,1.24,8.17,8.17,0,0,0,2.33,1,10.82,10.82,0,0,0,2.9.37,10.45,10.45,0,0,0,4.63-1,10.16,10.16,0,0,0,3.57-2.88,13.12,13.12,0,0,0,2.25-4.41,19.25,19.25,0,0,0,.77-5.58A16.8,16.8,0,0,0,160.89,22.57Zm-7.16,13.65a5.53,5.53,0,0,1-4.36,2.19,6,6,0,0,1-4.8-2.14,9.25,9.25,0,0,1-1.83-6.15,11.74,11.74,0,0,1,.86-4.7,6.86,6.86,0,0,1,2.36-3,5.79,5.79,0,0,1,3.41-1,5.28,5.28,0,0,1,3.26,1,6.51,6.51,0,0,1,2.16,3,12.31,12.31,0,0,1,.77,4.57A9.67,9.67,0,0,1,153.73,36.22Z"/><path class="cls-1" d="M192,31.92a7.66,7.66,0,0,0-3.06-.52h-1.07V12.22q0-4.32-3.77-4.32a2.8,2.8,0,0,0-2,.78,19.37,19.37,0,0,0-2.12,2.52L166.8,28.77,165.88,30c-.25.33-.48.67-.72,1a4.92,4.92,0,0,0-.52,1,2.93,2.93,0,0,0-.17,1,3.7,3.7,0,0,0,1.18,2.9A5.1,5.1,0,0,0,169.18,37h12.43v3.52a4.25,4.25,0,0,0,.82,2.8,2.91,2.91,0,0,0,2.35,1,2.74,2.74,0,0,0,2.26-1,4.86,4.86,0,0,0,.81-3V37h1.48a5,5,0,0,0,2.83-.66,2.38,2.38,0,0,0,.94-2.1A2.23,2.23,0,0,0,192,31.92Zm-10.33-.52H171L181.62,17Z"/></svg>