<?xml version="1.0" encoding="utf-8"?>
<!-- Generator: Adobe Illustrator 25.3.1, SVG Export Plug-In . SVG Version: 6.00 Build 0)  -->
<svg version="1.1" id="Layer_1" xmlns="http://www.w3.org/2000/svg" xmlns:xlink="http://www.w3.org/1999/xlink" x="0px" y="0px"
	 viewBox="0 0 217.3 64.4" style="enable-background:new 0 0 217.3 64.4;" xml:space="preserve">
<style type="text/css">
	.st0{fill:#FFFFFF;}
</style>
<g>
	<path class="st0" d="M51.1,9.9c-3.2-3.2-6.4-3.2-12.7-3.2H19.3c-6.4,0-9.6,0-12.8,3.2s-3.2,6.4-3.2,12.7v19.1c0,6.3,0,9.6,3.2,12.7
		s6.4,3.2,12.7,3.2h19.1c6.3,0,9.6,0,12.7-3.2s3.2-6.4,3.2-12.7V22.6C54.3,16.3,54.3,13.1,51.1,9.9z M22.1,49.6
		c-1.5,0-2.8-1.2-2.8-2.7c0-1.5,1.2-2.8,2.7-2.8c1.5,0,2.8,1.2,2.8,2.7c0,0,0,0,0,0C24.8,48.4,23.6,49.6,22.1,49.6L22.1,49.6z
		 M35.8,49.6c-1.5,0-2.8-1.2-2.8-2.7c0-1.5,1.2-2.8,2.7-2.8c1.5,0,2.8,1.2,2.8,2.7c0,0,0,0,0,0C38.6,48.4,37.3,49.6,35.8,49.6
		C35.8,49.6,35.8,49.6,35.8,49.6L35.8,49.6z M47.3,23.6c-0.6,0.5-1.4,0.7-2.2,0.6h-1.3l-4.4,12.8c-0.4,1.1-0.7,1.9-0.9,2.4
		c-0.2,0.5-0.6,1-1,1.3c-1.1,0.8-2.6,0.8-3.8,0c-0.5-0.4-0.8-1-1-1.6c-0.2-0.6-0.5-1.4-0.7-2.3L29,26.4l-3,10.5
		c-0.3,1.2-0.7,2.3-1.3,3.3c-0.5,0.8-1.4,1.2-2.4,1.1c-0.5,0-1.1-0.1-1.6-0.3c-0.4-0.2-0.8-0.6-1-1c-0.3-0.5-0.5-1-0.7-1.5
		c-0.2-0.6-0.4-1-0.5-1.4l-4.4-12.9c-0.3-0.8-0.6-1.6-0.6-2.5c0-0.6,0.2-1.2,0.7-1.6c0.4-0.5,1.1-0.7,1.7-0.7
		c0.7-0.1,1.4,0.2,1.8,0.8c0.4,0.8,0.8,1.7,1,2.6l3.5,12l3.2-11.2c0.3-1.2,0.6-2,0.8-2.4c0.2-0.5,0.5-0.9,0.9-1.2
		c0.5-0.4,1.2-0.6,1.9-0.6c0.7,0,1.3,0.2,1.9,0.6c0.4,0.3,0.8,0.8,1,1.3c0.2,0.5,0.4,1.2,0.8,2.4l3.2,11.2l3.6-12
		c0.2-0.9,0.4-1.5,0.6-1.9c0.2-0.4,0.4-0.8,0.7-1c0.4-0.3,0.9-0.5,1.5-0.5h2.8c0.8-0.1,1.7,0.2,2.4,0.6c0.5,0.4,0.8,1.1,0.8,1.7
		C48.1,22.5,47.8,23.2,47.3,23.6z"/>
	<g>
		<path class="st0" d="M102.3,22.4c-0.7,0-1.3,0.1-1.8,0.5c-0.4,0.3-0.7,0.8-0.9,1.3c-0.2,0.5-0.4,1.3-0.7,2.3l-4.4,15l-4-13.9
			c-0.4-1.4-0.7-2.4-1-2.9c-0.2-0.6-0.6-1.2-1.1-1.6c-1.4-0.9-3.2-0.9-4.6,0c-0.5,0.4-0.9,0.9-1.2,1.5c-0.2,0.5-0.5,1.5-1,3l-4,13.9
			l-4.4-15c-0.3-1.1-0.7-2.2-1.3-3.2c-0.5-0.7-1.4-1-2.2-0.9c-0.8,0-1.6,0.3-2.1,0.9c-0.6,0.5-0.9,1.2-0.9,1.9
			c0.1,1.1,0.4,2.1,0.8,3.1l5.4,16l0.6,1.7c0.2,0.7,0.5,1.3,0.9,1.9c0.3,0.5,0.8,0.9,1.3,1.2c0.6,0.3,1.2,0.4,1.9,0.4
			c1.2,0.1,2.3-0.4,3-1.4c0.7-1.3,1.3-2.7,1.6-4.1l3.7-13l3.8,13.1c0.3,1.2,0.6,2.1,0.9,2.9c0.3,0.7,0.7,1.4,1.3,1.9
			c1.4,1,3.3,1,4.7,0c0.5-0.4,1-1,1.2-1.6c0.3-0.6,0.6-1.6,1.1-3l5.5-16c0.4-1,0.7-2,0.8-3.1c0-0.8-0.3-1.5-0.9-2
			C103.8,22.6,103,22.3,102.3,22.4L102.3,22.4z"/>
		<path class="st0" d="M128.1,40.5c-0.5,0-1,0.1-1.5,0.4c-0.8,0.8-1.5,1.4-2,1.9c-0.6,0.5-1.1,0.9-1.8,1.3c-0.6,0.4-1.2,0.7-1.9,0.9
			c-0.7,0.2-1.5,0.3-2.2,0.3c-2.4,0-4.6-1.3-5.7-3.5c-0.6-1.2-0.9-2.6-0.9-4h13.1c1.4,0.1,2.8-0.2,4.1-0.7c1-0.5,1.4-1.6,1.4-3.3
			c0-1.9-0.5-3.7-1.4-5.4c-1-1.8-2.4-3.3-4.2-4.3c-2.1-1.1-4.4-1.7-6.8-1.6c-1.9,0-3.7,0.3-5.5,1c-1.6,0.6-3,1.5-4.2,2.8
			c-1.2,1.3-2,2.7-2.6,4.4c-0.6,1.8-0.9,3.6-0.9,5.5c0,4.2,1.2,7.5,3.6,10c2.4,2.5,5.7,3.7,10,3.7c1.7,0,3.4-0.2,5-0.7
			c1.3-0.4,2.5-1.1,3.6-2c0.9-0.6,1.6-1.4,2.1-2.3c0.4-0.6,0.7-1.4,0.7-2.1c0-0.6-0.2-1.2-0.6-1.6C129.3,40.6,128.7,40.4,128.1,40.5
			z M114.1,28.8c1.1-1.1,2.6-1.8,4.1-1.7c1.6-0.1,3.1,0.6,4.2,1.7c1.2,1.4,1.8,3.3,1.8,5.1h-12.2C112.3,32,112.9,30.2,114.1,28.8
			L114.1,28.8z"/>
		<path class="st0" d="M212.9,37.6c-0.8-1.1-1.8-1.9-3-2.5c-1.6-0.8-3.4-1.4-5.1-1.8c-1.8-0.4-3.2-0.8-4.2-1.1
			c-0.9-0.2-1.7-0.6-2.4-1.1c-0.6-0.4-0.9-1-0.9-1.7c0-0.8,0.5-1.6,1.2-2c0.9-0.5,1.9-0.8,3-0.8c1,0,2,0.2,2.8,0.6
			c0.7,0.4,1.3,0.9,1.8,1.6c0.5,0.6,1.1,1.2,1.7,1.8c0.5,0.4,1.1,0.6,1.8,0.6c0.8,0,1.6-0.2,2.2-0.7c0.5-0.5,0.8-1.2,0.8-1.9
			c0-0.8-0.3-1.5-0.7-2.2c-0.6-0.8-1.3-1.5-2.1-2c-1.1-0.7-2.3-1.2-3.5-1.5c-1.5-0.4-3.1-0.6-4.7-0.5c-2-0.1-3.9,0.3-5.7,1.1
			c-1.4,0.6-2.7,1.6-3.6,2.9c-0.8,1.1-1.2,2.4-1.2,3.8c0,1.4,0.4,2.8,1.3,3.8c1,1.1,2.2,2,3.5,2.5c1.8,0.8,3.7,1.4,5.7,1.8
			c1.6,0.3,3,0.8,4.4,1.6c0.9,0.5,1.4,1.5,1.4,2.6c-0.1,0.9-0.5,1.7-1.3,2.1c-1,0.6-2.2,1-3.3,0.9c-2.7,0.2-5.2-1.2-6.4-3.6
			c-0.3-0.5-0.6-1-1.1-1.5c-0.5-0.4-1-0.6-1.6-0.5c-0.7,0-1.5,0.3-2,0.8c-0.5,0.5-0.8,1.2-0.8,1.9c0,1.2,0.5,2.4,1.2,3.4
			c1,1.3,2.3,2.2,3.8,2.8c2,0.8,4.1,1.2,6.2,1.1c2.2,0.1,4.4-0.3,6.5-1c3.4-1.1,5.6-4.3,5.4-7.8C214,39.8,213.6,38.6,212.9,37.6
			L212.9,37.6z"/>
		<path class="st0" d="M157.5,28.6c-0.8-1.9-2.2-3.5-3.9-4.6c-1.8-1.1-3.8-1.6-5.9-1.6c-1.7-0.1-3.4,0.3-4.9,1
			c-1.4,0.8-2.7,1.8-3.9,3v-8.6c0.1-1-0.2-2-0.8-2.9c-0.6-0.7-1.5-1-2.4-1c-0.9-0.1-1.7,0.3-2.3,1c-0.6,0.9-0.9,2-0.8,3.1v27.7
			c-0.1,1,0.2,2,0.9,2.9c0.6,0.7,1.4,1,2.3,1c0.9,0,1.7-0.3,2.3-1c0.7-0.8,1-1.8,0.9-2.9v-0.7c0.7,0.8,1.3,1.5,1.8,1.9
			c0.5,0.5,1,0.9,1.6,1.2c0.7,0.5,1.5,0.8,2.3,1c0.9,0.3,1.9,0.4,2.9,0.4c1.6,0,3.2-0.3,4.6-1c1.4-0.7,2.6-1.7,3.6-2.9
			c1-1.3,1.8-2.8,2.2-4.4c0.5-1.8,0.8-3.7,0.8-5.6C159,33.4,158.5,30.9,157.5,28.6z M150.4,42.3c-1,1.4-2.6,2.2-4.4,2.2
			c-1.8,0.1-3.6-0.7-4.8-2.1c-1.3-1.8-2-3.9-1.8-6.2c0-1.6,0.3-3.2,0.9-4.7c0.5-1.2,1.3-2.2,2.4-3c1-0.7,2.2-1,3.4-1
			c1.2,0,2.3,0.3,3.3,1c1,0.8,1.7,1.8,2.2,3c0.5,1.5,0.8,3,0.8,4.6C152.3,38.3,151.7,40.5,150.4,42.3z"/>
		<path class="st0" d="M188.6,38c-1-0.4-2-0.6-3.1-0.5h-1.1V18.3c0-2.9-1.3-4.3-3.8-4.3c-0.7,0-1.5,0.3-2,0.8
			c-0.8,0.8-1.5,1.6-2.1,2.5l-13.2,17.6l-0.9,1.2c-0.2,0.3-0.5,0.7-0.7,1c-0.2,0.3-0.4,0.6-0.5,1c-0.1,0.3-0.2,0.7-0.2,1
			c-0.1,1.1,0.4,2.2,1.2,2.9c1,0.8,2.3,1.2,3.5,1.1h12.4v3.5c-0.1,1,0.2,2,0.8,2.8c0.6,0.7,1.5,1,2.4,1c0.9,0,1.7-0.3,2.3-1
			c0.6-0.9,0.9-1.9,0.8-3v-3.3h1.5c1,0.1,2-0.2,2.8-0.7c0.7-0.5,1-1.3,0.9-2.1C189.9,39.4,189.5,38.5,188.6,38z M178.3,37.5h-10.7
			l10.6-14.4L178.3,37.5z"/>
	</g>
</g>
</svg>
